{"asset":{"generator":"glTF-Transform v4.2.1","version":"2.0"},"accessors":[{"type":"SCALAR","componentType":5123,"count":208980,"bufferView":0,"byteOffset":0},{"type":"VEC3","componentType":5122,"count":36641,"max":[32767,7626,18825],"min":[-32767,-7626,-18825],"normalized":true,"bufferView":1,"byteOffset":0},{"type":"VEC3","componentType":5122,"count":36641,"normalized":true,"bufferView":1,"byteOffset":8}],"bufferViews":[{"buffer":0,"byteOffset":0,"byteLength":417960,"target":34963},{"buffer":0,"byteOffset":417960,"byteLength":586256,"byteStride":16,"target":34962}],"buffers":[{"uri":"Balloon_bin/Balloon.bin","byteLength":1004216}],"materials":[{"name":"Material #27","doubleSided":true,"pbrMetallicRoughness":{"baseColorFactor":[0.12156863510608673,0.917647123336792,0.458823561668396,1],"roughnessFactor":0.5527864098548889,"metallicFactor":0},"extensions":{"KHR_materials_specular":{"specularColorFactor":[2,2,2]}}}],"meshes":[{"name":"Mesh","primitives":[{"attributes":{"POSITION":1,"NORMAL":2},"mode":4,"material":0,"indices":0}]}],"nodes":[{"name":"CP_Logo_Balloon_Flattened_01","translation":[0.05518070717663903,0.1670433934421376,-0.006875522729706331],"rotation":[0.707106828689569,0,0,0.7071067336835231],"scale":[0.9807705850726975,0.9807707168479206,0.9807707168479206],"mesh":0}],"scenes":[{"name":"Scene","nodes":[0]}],"scene":0,"extensionsUsed":["KHR_materials_specular","KHR_mesh_quantization"],"extensionsRequired":["KHR_mesh_quantization"]}